HIERARCHY
ROOT Joint1
{
	OFFSET 0.000000 0.000000 0.000000
	CHANNELS 6 Xposition Yposition Zposition Xrotation Yrotation Zrotation
	JOINT Joint2
	{
		OFFSET -0.000000 0.000000 1.456275
		CHANNELS 6 Xposition Yposition Zposition Xrotation Yrotation Zrotation
		JOINT Joint3
		{
			OFFSET -0.000000 0.000002 1.471446
			CHANNELS 6 Xposition Yposition Zposition Xrotation Yrotation Zrotation
			JOINT Joint4
			{
				OFFSET 0.625745 0.000000 0.917755
				CHANNELS 6 Xposition Yposition Zposition Xrotation Yrotation Zrotation
				JOINT Joint5
				{
					OFFSET -0.629534 0.000001 0.940221
					CHANNELS 6 Xposition Yposition Zposition Xrotation Yrotation Zrotation
					JOINT Joint6
					{
						OFFSET -0.000001 0.113772 1.960660
						CHANNELS 6 Xposition Yposition Zposition Xrotation Yrotation Zrotation
						JOINT Joint7
						{
							OFFSET -0.669733 -0.113771 0.388340
							CHANNELS 6 Xposition Yposition Zposition Xrotation Yrotation Zrotation
							End Site
							{
								OFFSET 0.005509 0.005509 0.438980
							}
						}
					}
				}
			}
		}
	}
}
MOTION
Frames: 9
Frame Time: 0.041667
0.000000 0.000000 0.000000 -0.000000 1.019410 -16.115447 -0.000000 0.000000 1.456275 -0.000000 -1.372070 0.000001 -0.000000 0.000002 1.471446 -0.000001 -1.133463 -36.344526 0.625745 0.000000 0.917755 0.000003 75.184441 0.000005 -0.629534 0.000001 0.940221 -0.000001 1.709735 29.710114 -0.000001 0.113772 1.960660 -88.303896 68.222340 -0.000011 -0.669733 -0.113771 0.388341 0.167410 3.072040 75.907376 
0.000000 0.000000 0.000000 -0.000000 1.019410 -15.723531 -0.000000 0.000000 1.456275 0.000000 -2.433386 -0.000001 -0.000000 0.000002 1.471446 -0.000001 -1.133463 -35.460805 0.625745 0.000000 0.917755 0.000001 76.640692 0.000023 -0.629534 0.000001 0.940221 -0.000003 1.709736 28.986742 -0.000000 0.113773 1.960661 -88.303903 68.751646 -0.000009 -0.669733 -0.113771 0.388340 0.154029 3.093740 77.344010 
0.000000 0.000000 0.000000 -0.000000 1.019410 -15.202463 -0.000000 0.000000 1.456275 -0.000000 -3.844455 0.000001 -0.000000 0.000002 1.471446 -0.000001 -1.133463 -34.285859 0.625745 0.000000 0.917755 -0.000001 78.576832 -0.000006 -0.629533 0.000001 0.940221 -0.000002 1.709736 28.024994 -0.000001 0.113772 1.960661 -88.303889 69.455388 -0.000009 -0.669733 -0.113771 0.388340 0.135401 3.122059 79.254134 
0.000000 0.000000 0.000000 -0.000000 1.019410 -14.601228 -0.000000 -0.000000 1.456275 -0.000000 -5.472608 0.000000 -0.000000 0.000002 1.471446 -0.000001 -1.133464 -32.930155 0.625745 0.000000 0.917755 0.000006 80.810844 0.000003 -0.629534 0.000001 0.940221 -0.000002 1.709736 26.915288 -0.000001 0.113772 1.960660 -88.303896 70.267395 -0.000012 -0.669733 -0.113771 0.388341 0.112747 3.153941 81.458195 
0.000000 0.000000 0.000000 -0.000000 1.019410 -13.999998 -0.000000 -0.000000 1.456275 -0.000000 -7.100754 -0.000000 -0.000000 0.000002 1.471446 -0.000001 -1.133462 -31.574458 0.625745 0.000000 0.917755 -0.000024 83.044835 0.000008 -0.629533 0.000001 0.940221 -0.000005 1.709737 25.805575 -0.000002 0.113772 1.960661 -88.303889 71.079395 -0.000012 -0.669733 -0.113772 0.388340 0.088883 3.184930 83.662331 
0.000000 0.000000 0.000000 -0.000000 1.019410 -13.478923 -0.000000 0.000000 1.456275 0.000000 -8.511830 0.000000 -0.000000 0.000002 1.471445 -0.000001 -1.133463 -30.399512 0.625745 0.000000 0.917755 -0.000036 84.980988 0.000025 -0.629534 0.000001 0.940221 -0.000001 1.709737 24.843823 -0.000000 0.113772 1.960660 -88.303896 71.783137 -0.000013 -0.669733 -0.113771 0.388340 0.067243 3.211028 85.572660 
0.000000 0.000000 0.000000 -0.000000 1.019410 -13.086995 -0.000000 -0.000000 1.456275 0.000000 -9.573178 0.000000 -0.000000 0.000002 1.471446 -0.000001 -1.133462 -29.515761 0.625745 0.000000 0.917755 -0.000027 86.437273 -0.000011 -0.629534 0.000001 0.940221 -0.000001 1.709736 24.120434 -0.000000 0.113773 1.960661 -88.303903 72.312456 -0.000002 -0.669733 -0.113771 0.388340 0.050400 3.230177 87.009575 
0.000000 0.000000 0.000000 -0.000000 1.019410 -12.748516 -0.000000 -0.000000 1.456275 0.000000 -10.489786 0.000000 -0.000000 0.000002 1.471446 -0.000001 -1.133462 -28.752538 0.625745 0.000000 0.917755 -0.000063 87.694964 -0.000030 -0.629534 0.000001 0.940221 -0.000005 1.709737 23.495692 -0.000001 0.113772 1.960661 -88.303903 72.769594 -0.000011 -0.669733 -0.113771 0.388340 0.035470 3.246374 88.250545 
0.000000 0.000000 0.000000 -0.000000 1.019410 -12.356619 -0.000000 -0.000000 1.456275 0.000000 -11.551051 -0.000000 -0.000000 0.000002 1.471446 -0.000001 -1.133463 -27.868859 0.625745 0.000000 0.917755 -0.000063 89.151140 0.000066 -0.629534 0.000001 0.940221 -0.000004 1.709736 22.772358 -0.000001 0.113772 1.960661 -88.303896 73.298879 -0.000011 -0.669733 -0.113771 0.388341 0.017752 3.264705 89.687392 
